<svg width="45" height="45" viewBox="0 0 45 45" fill="none" xmlns="http://www.w3.org/2000/svg">
<circle cx="22.5" cy="22.5" r="22.5" fill="#EBF2F0"/>
<path d="M21.9999 18.0946C19.8495 18.0946 18.0946 19.8495 18.0946 21.9999C18.0946 24.1503 19.8495 25.9052 21.9999 25.9052C24.1503 25.9052 25.9052 24.1503 25.9052 21.9999C25.9052 19.8495 24.1503 18.0946 21.9999 18.0946ZM33.7128 21.9999C33.7128 20.3827 33.7274 18.7802 33.6366 17.1659C33.5458 15.2909 33.1181 13.6268 31.747 12.2558C30.3729 10.8817 28.7118 10.4569 26.8368 10.3661C25.2196 10.2753 23.6171 10.2899 22.0028 10.2899C20.3856 10.2899 18.7831 10.2753 17.1688 10.3661C15.2938 10.4569 13.6298 10.8847 12.2587 12.2558C10.8847 13.6298 10.4599 15.2909 10.369 17.1659C10.2782 18.7831 10.2929 20.3856 10.2929 21.9999C10.2929 23.6142 10.2782 25.2196 10.369 26.8339C10.4599 28.7089 10.8876 30.3729 12.2587 31.744C13.6327 33.1181 15.2938 33.5429 17.1688 33.6337C18.786 33.7245 20.3886 33.7099 22.0028 33.7099C23.62 33.7099 25.2226 33.7245 26.8368 33.6337C28.7118 33.5429 30.3759 33.1151 31.747 31.744C33.121 30.37 33.5458 28.7089 33.6366 26.8339C33.7304 25.2196 33.7128 23.6171 33.7128 21.9999ZM21.9999 28.0087C18.6747 28.0087 15.9911 25.3251 15.9911 21.9999C15.9911 18.6747 18.6747 15.9911 21.9999 15.9911C25.3251 15.9911 28.0087 18.6747 28.0087 21.9999C28.0087 25.3251 25.3251 28.0087 21.9999 28.0087ZM28.2548 17.1483C27.4784 17.1483 26.8515 16.5214 26.8515 15.745C26.8515 14.9686 27.4784 14.3417 28.2548 14.3417C29.0311 14.3417 29.6581 14.9686 29.6581 15.745C29.6583 15.9294 29.6222 16.1119 29.5518 16.2823C29.4813 16.4527 29.3779 16.6075 29.2476 16.7378C29.1172 16.8682 28.9624 16.9715 28.7921 17.042C28.6217 17.1124 28.4391 17.1486 28.2548 17.1483Z" fill="#2C705F"/>
</svg>
